<?xml version="1.0" encoding="utf-8"?>
<!-- Generator: Adobe Illustrator 25.1.0, SVG Export Plug-In . SVG Version: 6.00 Build 0)  -->
<svg version="1.1" id="Layer_1" xmlns="http://www.w3.org/2000/svg" xmlns:xlink="http://www.w3.org/1999/xlink" x="0px" y="0px"
	 viewBox="0 0 1000 1000" style="enable-background:new 0 0 1000 1000;" xml:space="preserve">
<style type="text/css">
	.st0{fill:#FFFFFF;}
</style>
<g>
	<path class="st0" d="M449.8,224.4H244c-10.8,0-19.6,8.8-19.6,19.6v205.8c0,10.8,8.8,19.6,19.6,19.6h205.8
		c10.8,0,19.6-8.8,19.6-19.6V244C469.4,233.2,460.6,224.4,449.8,224.4L449.8,224.4z M449.8,530.6H244c-10.8,0-19.6,8.8-19.6,19.6
		V756c0,10.8,8.8,19.6,19.6,19.6h205.8c10.8,0,19.6-8.8,19.6-19.6V550.2C469.4,539.4,460.6,530.6,449.8,530.6L449.8,530.6z
		 M756,530.6H550.2c-10.8,0-19.6,8.8-19.6,19.6V756c0,10.8,8.8,19.6,19.6,19.6H756c10.8,0,19.6-8.8,19.6-19.6V550.2
		C775.6,539.4,766.9,530.6,756,530.6L756,530.6z M500,10C229.4,10,10,229.4,10,500s219.4,490,490,490s490-219.4,490-490
		S770.6,10,500,10L500,10z M500,928.7c-236.8,0-428.7-192-428.7-428.7c0-236.8,192-428.7,428.7-428.7
		c236.8,0,428.7,191.9,428.7,428.7S736.8,928.7,500,928.7L500,928.7z M755.8,224.4H550c-10.8,0-19.6,8.8-19.6,19.6v205.8
		c0,10.8,8.8,19.6,19.6,19.6h205.8c10.8,0,19.6-8.8,19.6-19.6V244C775.4,233.2,766.7,224.4,755.8,224.4L755.8,224.4z"/>
</g>
</svg>
